<svg width="80" height="80" viewBox="0 0 80 80" fill="none" xmlns="http://www.w3.org/2000/svg">
  <!-- 外圆背景 -->
  <circle cx="40" cy="40" r="38" fill="url(#gradient)" stroke="rgba(255,255,255,0.3)" stroke-width="2"/>
  
  <!-- 内部装饰圆 -->
  <circle cx="40" cy="40" r="30" fill="rgba(255,255,255,0.1)" />
  <circle cx="40" cy="40" r="22" fill="rgba(255,255,255,0.05)" />
  
  <!-- 播放按钮三角形 -->
  <path d="M32 26L32 54L54 40L32 26Z" fill="white" />
  
  <!-- 装饰元素 -->
  <circle cx="56" cy="24" r="3" fill="rgba(255,255,255,0.8)" />
  <circle cx="64" cy="32" r="2" fill="rgba(255,255,255,0.6)" />
  <circle cx="24" cy="56" r="2.5" fill="rgba(255,255,255,0.7)" />
  
  <!-- 解锁图标 -->
  <g transform="translate(16, 16) scale(0.8)">
    <path d="M15 11V7A4 4 0 0 0 7 7V11" stroke="white" stroke-width="2" fill="none" stroke-linecap="round"/>
    <rect x="5" y="11" width="14" height="8" rx="2" fill="white" fill-opacity="0.9"/>
    <circle cx="12" cy="15" r="1.5" fill="#2563eb"/>
  </g>
  
  <!-- VIP标识 -->
  <g transform="translate(48, 48)">
    <rect x="0" y="0" width="26" height="12" rx="6" fill="rgba(255,255,255,0.9)"/>
    <text x="13" y="8.5" text-anchor="middle" fill="#2563eb" font-family="Arial, sans-serif" font-size="7" font-weight="bold">VIP</text>
  </g>
  
  <!-- 渐变定义 -->
  <defs>
    <linearGradient id="gradient" x1="0%" y1="0%" x2="100%" y2="100%">
      <stop offset="0%" style="stop-color:#2563eb;stop-opacity:1" />
      <stop offset="30%" style="stop-color:#3b82f6;stop-opacity:1" />
      <stop offset="70%" style="stop-color:#4f46e5;stop-opacity:1" />
      <stop offset="100%" style="stop-color:#6366f1;stop-opacity:1" />
    </linearGradient>
  </defs>
</svg>
